HIERARCHY
ROOT Hips
{
	OFFSET -0.001795 -0.223333 0.028219
	CHANNELS 6 Xposition Yposition Zposition Zrotation Yrotation Xrotation 
	JOINT LeftUpLeg
	{
		OFFSET 0.069520 -0.091406 -0.006815
		CHANNELS 3 Zrotation Yrotation Xrotation
		JOINT LeftLeg
		{
			OFFSET 0.034277 -0.375199 -0.004496
			CHANNELS 3 Zrotation Yrotation Xrotation
			JOINT LeftFoot
			{
				OFFSET -0.013596 -0.397961 -0.043693
				CHANNELS 3 Zrotation Yrotation Xrotation
				JOINT LeftToe
				{
					OFFSET 0.026358 -0.055791 0.119288
					CHANNELS 3 Zrotation Yrotation Xrotation
					End Site
					{
						OFFSET 0.000000 0.000000 0.000000
					}
				}
			}
		}
	}
	JOINT RightUpLeg
	{
		OFFSET -0.067670 -0.090522 -0.004320
		CHANNELS 3 Zrotation Yrotation Xrotation
		JOINT RightLeg
		{
			OFFSET -0.038290 -0.382569 -0.008850
			CHANNELS 3 Zrotation Yrotation Xrotation
			JOINT RightFoot
			{
				OFFSET 0.015774 -0.398415 -0.042312
				CHANNELS 3 Zrotation Yrotation Xrotation
				JOINT RightToe
				{
					OFFSET -0.025372 -0.048144 0.123348
					CHANNELS 3 Zrotation Yrotation Xrotation
					End Site
					{
						OFFSET 0.000000 0.000000 0.000000
					}
				}
			}
		}
	}
	JOINT Spine
	{
		OFFSET -0.002533 0.108963 -0.026696
		CHANNELS 3 Zrotation Yrotation Xrotation
		JOINT Spine1
		{
			OFFSET 0.005487 0.135180 0.001092
			CHANNELS 3 Zrotation Yrotation Xrotation
			JOINT Spine2
			{
				OFFSET 0.001457 0.052922 0.025425
				CHANNELS 3 Zrotation Yrotation Xrotation
				JOINT Neck
				{
					OFFSET -0.002778 0.213870 -0.042857
					CHANNELS 3 Zrotation Yrotation Xrotation
					JOINT Head
					{
						OFFSET 0.005152 0.064970 0.051349
						CHANNELS 3 Zrotation Yrotation Xrotation
						End Site
						{
							OFFSET 0.000000 0.000000 0.000000
						}
					}
				}
				JOINT LeftShoulder
				{
					OFFSET 0.078845 0.121749 -0.034090
					CHANNELS 3 Zrotation Yrotation Xrotation
					JOINT LeftArm
					{
						OFFSET 0.090977 0.030469 -0.008868
						CHANNELS 3 Zrotation Yrotation Xrotation
						JOINT LeftForeArm
						{
							OFFSET 0.259612 -0.012772 -0.027456
							CHANNELS 3 Zrotation Yrotation Xrotation
							JOINT LeftHand
							{
								OFFSET 0.249234 0.008986 -0.001171
								CHANNELS 3 Zrotation Yrotation Xrotation
								End Site
								{
									OFFSET 0.000000 0.000000 0.000000
								}
							}
						}
					}
				}
				JOINT RightShoulder
				{
					OFFSET -0.081759 0.118833 -0.038615
					CHANNELS 3 Zrotation Yrotation Xrotation
					JOINT RightArm
					{
						OFFSET -0.096012 0.032551 -0.009143
						CHANNELS 3 Zrotation Yrotation Xrotation
						JOINT RightForeArm
						{
							OFFSET -0.253742 -0.013329 -0.021401
							CHANNELS 3 Zrotation Yrotation Xrotation
							JOINT RightHand
							{
								OFFSET -0.255298 0.007772 -0.005559
								CHANNELS 3 Zrotation Yrotation Xrotation
								End Site
								{
									OFFSET 0.000000 0.000000 0.000000
								}
							}
						}
					}
				}
			}
		}
	}
}
MOTION
Frames: 14
Frame Time: 0.050000
0.000000 0.981582 0.000000 -4.307686 -12.912913 0.388921 10.318309 0.379228 -11.266695 -4.608785 1.325010 17.399014 3.945539 9.693117 12.085538 0.000000 0.000000 0.000000 -7.405292 0.861131 -10.802762 6.011557 1.514244 43.163036 -2.749094 -12.563358 16.990669 0.000000 0.000000 0.000000 -0.245336 -0.349391 12.265786 -5.731515 1.689673 -24.688255 0.494217 11.939774 24.728057 12.466947 -5.942034 -21.478460 0.000000 0.000000 0.000000 -19.599757 -8.865011 2.815317 -50.242142 -10.030518 -3.910348 7.454102 -23.677198 -0.469634 0.000000 0.000000 0.000000 27.393175 -2.214275 -1.849680 58.339030 4.920939 -5.994769 -1.211255 32.218535 1.724207 0.000000 0.000000 0.000000 
0.000057 0.985507 0.018474 -5.424433 -14.017494 0.736927 11.481218 0.523479 -9.372823 -4.851367 1.420728 16.837799 3.793098 9.188337 10.450659 0.000000 0.000000 0.000000 -9.421291 1.006916 -14.364385 8.071543 0.664991 42.843639 -4.168746 -15.353259 19.248750 0.000000 0.000000 0.000000 1.486068 -0.503302 10.621930 -6.306747 1.837503 -22.246863 0.637286 12.890431 23.778228 11.951402 -5.110568 -23.269644 0.000000 0.000000 0.000000 -18.475567 -9.044528 2.817808 -51.320572 -10.046232 -3.857068 5.633667 -24.656954 -0.132065 0.000000 0.000000 0.000000 26.292943 -3.658541 -2.680990 61.081481 2.029113 -7.428481 -0.006835 34.069145 2.238023 0.000000 0.000000 0.000000 
-0.003081 0.988890 0.035870 -5.921498 -14.743250 0.721601 12.059716 0.537556 -6.409809 -5.170122 1.418466 14.814104 4.946432 11.138292 11.034602 0.000000 0.000000 0.000000 -10.904242 1.000449 -15.170277 7.341865 0.686483 37.508829 -3.138460 -14.057139 19.373459 0.000000 0.000000 0.000000 1.943194 -0.552238 10.980730 -4.433273 1.326614 -21.865839 0.001782 13.705560 24.447256 13.112895 -5.575432 -24.380997 0.000000 0.000000 0.000000 -19.100736 -8.578364 2.486389 -51.111241 -11.005954 -3.475618 4.802553 -25.147168 0.039854 0.000000 0.000000 0.000000 24.967113 -3.699662 -2.501642 60.785830 1.122340 -7.882963 -0.090260 35.324337 2.351791 0.000000 0.000000 0.000000 
-0.009539 0.990835 0.051339 -6.852654 -17.339489 1.654166 12.778192 0.632353 -3.867968 -5.422863 1.480450 12.959602 6.368952 13.350140 10.187341 0.000000 0.000000 0.000000 -11.901945 1.122281 -15.931595 6.011011 0.698253 27.934306 -3.845514 -15.838055 20.060993 0.000000 0.000000 0.000000 3.392880 -0.684484 10.910204 -5.077489 1.409528 -21.693427 -0.022522 15.389136 23.668469 13.512932 -5.784460 -24.338681 0.000000 0.000000 0.000000 -17.487219 -7.809968 2.123529 -52.807593 -12.323933 -2.979480 5.170333 -24.359269 -0.032525 0.000000 0.000000 0.000000 25.354524 -3.429314 -2.382068 61.259720 1.188200 -7.849725 -1.961732 34.172312 1.702517 0.000000 0.000000 0.000000 
-0.020491 0.989418 0.065606 -6.755968 -17.938063 2.321818 13.354673 0.668529 -2.614313 -5.648705 1.458167 11.404792 7.427256 15.145784 10.180920 0.000000 0.000000 0.000000 -13.101167 1.134800 -16.061236 3.104229 0.668114 17.790306 -1.865726 -14.316551 24.548636 0.000000 0.000000 0.000000 3.451019 -0.690221 10.909600 -5.533452 1.514817 -21.199349 0.489622 15.334103 23.242247 13.627649 -5.942750 -24.206690 0.000000 0.000000 0.000000 -16.650474 -7.131611 1.926444 -54.167114 -12.429947 -2.984574 4.879246 -24.495097 0.066594 0.000000 0.000000 0.000000 25.048639 -2.875809 -2.196800 61.745795 1.307347 -7.760046 -2.647290 33.230531 1.390072 0.000000 0.000000 0.000000 
-0.036319 0.985551 0.078343 -6.472226 -18.375670 2.896576 14.251991 0.730459 -1.712499 -5.881750 1.489629 10.739941 7.448302 15.120290 10.776108 0.000000 0.000000 0.000000 -13.329461 1.189628 -16.613916 0.185619 0.660326 10.721903 -1.531888 -14.815112 27.956085 0.000000 0.000000 0.000000 4.168496 -0.779177 11.277744 -6.257180 1.679056 -21.912175 0.334299 15.564499 23.858570 15.356317 -6.741262 -25.639629 0.000000 0.000000 0.000000 -16.109636 -8.113136 2.512880 -55.408380 -13.127525 -2.781694 6.284533 -24.497017 -0.199951 0.000000 0.000000 0.000000 26.088828 -2.822785 -2.250307 61.532212 0.778748 -8.128102 -1.775189 33.554426 1.665247 0.000000 0.000000 0.000000 
-0.056794 0.980352 0.090004 -6.083126 -17.265417 2.859131 14.631718 0.670885 -0.834441 -5.639905 1.320119 9.823925 7.398018 15.108036 11.379466 0.000000 0.000000 0.000000 -14.300288 1.083305 -16.202400 0.738601 0.298341 7.031071 -3.333434 -17.304256 31.259279 0.000000 0.000000 0.000000 3.443281 -0.748123 12.178866 -6.205822 1.698969 -21.495078 0.248124 14.650703 23.830085 15.120374 -6.659953 -25.531635 0.000000 0.000000 0.000000 -15.020843 -9.107630 3.054644 -56.645920 -13.398507 -2.702607 5.013157 -25.747529 0.080491 0.000000 0.000000 0.000000 26.251044 -1.021972 -1.139078 62.442272 0.837206 -8.195841 -3.038083 34.498580 1.357371 0.000000 0.000000 0.000000 
-0.081129 0.975038 0.100812 -5.491339 -16.512738 2.889409 14.647401 0.609456 -0.295300 -4.984354 1.083557 8.967376 7.797045 15.770155 12.706797 0.000000 0.000000 0.000000 -14.054407 1.066890 -16.896783 0.358486 0.254360 5.587252 -2.404656 -16.475315 34.064172 0.000000 0.000000 0.000000 3.202615 -0.743411 12.751177 -5.639196 1.580511 -20.907622 -0.357522 14.116437 23.465113 15.281067 -6.842287 -25.063525 0.000000 0.000000 0.000000 -14.860464 -10.808162 3.878959 -57.896493 -13.759907 -2.494545 4.997659 -25.330457 0.076093 0.000000 0.000000 0.000000 25.463563 0.603129 -0.084685 64.334975 1.314915 -8.048992 -2.701767 34.939116 1.472786 0.000000 0.000000 0.000000 
-0.107384 0.969777 0.110693 -5.140957 -16.513731 3.046224 15.159148 0.635415 -0.165690 -4.719197 1.078952 10.069040 7.671615 15.559155 12.917658 0.000000 0.000000 0.000000 -13.584808 1.094891 -16.956026 0.631548 0.200220 5.202766 -2.104847 -16.167174 34.233648 0.000000 0.000000 0.000000 3.200289 -0.774010 13.817686 -5.624784 1.586668 -20.375787 -0.489073 13.603532 23.196386 15.386206 -6.798871 -25.745390 0.000000 0.000000 0.000000 -14.779354 -12.730856 4.910339 -58.563060 -14.987835 -1.827748 3.990784 -24.839394 0.293975 0.000000 0.000000 0.000000 24.951557 2.278715 0.796462 65.280946 2.236997 -7.541667 -1.981099 36.144382 1.695644 0.000000 0.000000 0.000000 
-0.133475 0.963393 0.119404 -4.181924 -16.097858 3.088207 14.944754 0.591196 -0.091792 -3.762296 0.870048 10.878092 7.410343 15.104050 14.605539 0.000000 0.000000 0.000000 -13.102392 1.093790 -16.866075 0.888199 0.188357 5.571227 -2.178528 -15.849534 31.607993 0.000000 0.000000 0.000000 3.508600 -0.851477 15.127947 -5.641795 1.614594 -20.337931 -0.419677 12.637011 24.042322 15.051613 -6.263965 -27.895633 0.000000 0.000000 0.000000 -16.278206 -15.226764 6.430641 -58.200345 -16.988329 -0.870120 3.635580 -24.556113 0.390113 0.000000 0.000000 0.000000 23.408695 4.300866 1.843973 66.422366 4.179399 -6.564928 -1.460185 37.181788 1.883930 0.000000 0.000000 0.000000 
-0.159963 0.957020 0.127838 -3.625131 -16.649746 3.490843 15.045481 0.617027 -0.172016 -3.472438 0.878659 12.127933 7.230517 14.756609 14.733980 0.000000 0.000000 0.000000 -12.283186 1.183292 -17.180775 1.321964 0.173967 6.194574 -3.067182 -16.623182 28.626354 0.000000 0.000000 0.000000 4.252821 -0.992673 16.783826 -5.537637 1.571331 -19.897581 -1.125577 11.728470 23.816553 15.331531 -6.441240 -28.649088 0.000000 0.000000 0.000000 -16.771349 -17.485732 7.902755 -58.041216 -19.345193 0.356150 2.882271 -24.113194 0.546710 0.000000 0.000000 0.000000 23.482906 6.874489 3.021761 66.016846 7.139031 -4.835693 -1.776278 37.566966 1.678266 0.000000 0.000000 0.000000 
-0.188655 0.951114 0.136401 -2.805685 -17.329897 4.060689 15.622661 0.693073 -0.526874 -3.536240 1.003169 13.535370 7.675485 15.316504 16.536467 0.000000 0.000000 0.000000 -11.585787 1.311570 -18.145767 1.918455 0.213615 8.188416 -4.043697 -17.411383 24.659306 0.000000 0.000000 0.000000 4.658460 -1.083839 18.811110 -5.374740 1.507468 -20.118619 -1.613995 10.045575 23.629244 15.430644 -6.391492 -30.353091 0.000000 0.000000 0.000000 -16.714906 -19.186732 9.272414 -57.801723 -21.222743 1.334325 2.644263 -23.736526 0.613522 0.000000 0.000000 0.000000 23.033321 9.809860 4.106797 65.459172 10.169232 -3.000651 -1.186096 38.178153 1.678243 0.000000 0.000000 0.000000 
-0.220896 0.946980 0.145722 -2.186433 -18.281866 3.835067 16.387819 0.773076 0.491178 -3.461031 1.108125 14.919933 8.540275 16.598132 16.475494 0.000000 0.000000 0.000000 -10.764917 1.430433 -18.686084 3.305156 0.162689 10.572855 -5.307126 -18.756131 21.540913 0.000000 0.000000 0.000000 5.014869 -1.128599 20.416776 -5.197995 1.446478 -19.752310 -2.002006 9.071674 23.227114 14.338734 -6.100197 -29.892197 0.000000 0.000000 0.000000 -16.351713 -21.005304 10.457465 -57.610064 -22.759367 2.185362 2.354267 -23.553261 0.658163 0.000000 0.000000 0.000000 22.511104 13.028728 5.520958 65.777553 13.176516 -1.167121 -0.923766 39.305280 1.683142 0.000000 0.000000 0.000000 
-0.255935 0.944118 0.154601 -1.879873 -19.291666 3.751283 17.865800 0.987515 0.111011 -3.508006 1.433499 18.315334 9.265083 17.510546 18.193338 0.000000 0.000000 0.000000 -9.624609 1.594030 -19.384333 4.904425 0.139080 14.353036 -6.059620 -19.349747 17.910779 0.000000 0.000000 0.000000 5.469315 -1.191923 22.032389 -4.912945 1.329451 -18.889443 -2.715792 8.231559 22.249460 15.383405 -6.776770 -29.870304 0.000000 0.000000 0.000000 -15.371738 -22.503470 11.246275 -57.033696 -24.257832 3.028036 2.296838 -22.618774 0.608825 0.000000 0.000000 0.000000 23.802809 15.406615 6.581771 63.718719 16.995751 1.118674 0.713883 40.168078 2.121138 0.000000 0.000000 0.000000 
